<svg width="48" height="48" viewBox="0 0 48 48" fill="none" xmlns="http://www.w3.org/2000/svg">
<rect width="48" height="48" rx="1" fill="white"/>
<path d="M22.1116 5.41333C22.7354 3.625 25.2646 3.625 25.8884 5.41333L29.199 14.9037C29.474 15.692 30.2098 16.2266 31.0445 16.2445L41.0934 16.4604C42.987 16.5011 43.7685 18.9064 42.2605 20.0524L34.2577 26.1337C33.5929 26.6388 33.3119 27.5037 33.5528 28.3031L36.4527 37.927C36.9992 39.7404 34.9531 41.227 33.3972 40.1469L25.1405 34.415C24.4547 33.9389 23.5453 33.9389 22.8595 34.415L14.6028 40.1469C13.0469 41.227 11.0008 39.7404 11.5473 37.927L14.4472 28.3031C14.6881 27.5037 14.4071 26.6388 13.7423 26.1337L5.73948 20.0524C4.23145 18.9064 5.01299 16.5011 6.90657 16.4604L16.9555 16.2445C17.7902 16.2266 18.526 15.692 18.801 14.9037L22.1116 5.41333Z" fill="#FFC045"/>
</svg>
