<svg width="48" height="48" viewBox="0 0 48 48" fill="none" xmlns="http://www.w3.org/2000/svg">
<g clip-path="url(#clip0)">
<rect width="48" height="48" fill="white"/>
<path d="M33.5 40.5C33.5 41.0283 33.2565 41.657 32.5571 42.3657C31.8514 43.0808 30.7558 43.7936 29.2835 44.4246C26.3443 45.6842 22.1792 46.5 17.5 46.5C12.8208 46.5 8.65573 45.6842 5.71651 44.4246C4.24423 43.7936 3.14862 43.0808 2.44286 42.3657C1.74346 41.657 1.5 41.0283 1.5 40.5C1.5 39.9717 1.74346 39.343 2.44286 38.6343C3.14862 37.9192 4.24423 37.2064 5.71651 36.5754C8.65573 35.3158 12.8208 34.5 17.5 34.5C22.1792 34.5 26.3443 35.3158 29.2835 36.5754C30.7558 37.2064 31.8514 37.9192 32.5571 38.6343C33.2565 39.343 33.5 39.9717 33.5 40.5Z" stroke="#192F5D" stroke-width="3"/>
<path d="M28.5 11.2771C28.5 14.1516 27.103 21.5265 24.7753 28.2322C23.6168 31.5696 22.2649 34.6292 20.8098 36.8249C20.0823 37.9226 19.3678 38.7446 18.6903 39.2796C18.0177 39.8108 17.4599 40 17 40C16.5401 40 15.9823 39.8108 15.3097 39.2796C14.6322 38.7446 13.9177 37.9226 13.1902 36.8249C11.7351 34.6292 10.3832 31.5696 9.22466 28.2322C6.89696 21.5265 5.5 14.1516 5.5 11.2771C5.5 6.07049 10.4414 1.5 17 1.5C23.5586 1.5 28.5 6.07049 28.5 11.2771Z" fill="#FFFCFC" stroke="#192F5D" stroke-width="3"/>
<path d="M21.5 14C21.5 16.4853 19.4853 18.5 17 18.5C14.5147 18.5 12.5 16.4853 12.5 14C12.5 11.5147 14.5147 9.5 17 9.5C19.4853 9.5 21.5 11.5147 21.5 14Z" stroke="#FF367E" stroke-width="3"/>
</g>
<defs>
<clipPath id="clip0">
<rect width="48" height="48" fill="white"/>
</clipPath>
</defs>
</svg>
