<svg width="48" height="48" viewBox="0 0 48 48" fill="none" xmlns="http://www.w3.org/2000/svg">
<rect width="48" height="48" fill="white"/>
<path d="M30.5 25C30.5 28.5899 27.5899 31.5 24 31.5C20.4101 31.5 17.5 28.5899 17.5 25C17.5 21.4101 20.4101 18.5 24 18.5C27.5899 18.5 30.5 21.4101 30.5 25Z" stroke="#FF367E" stroke-width="3"/>
<mask id="path-3-inside-1" fill="white">
<path fill-rule="evenodd" clip-rule="evenodd" d="M18.2676 6C17.7463 6 17.2456 6.20354 16.8721 6.56725L13.3427 10.0048C13.2622 10.0831 13.1903 10.1651 13.1265 10.25H8C3.58172 10.25 0 13.8317 0 18.25V32C0 36.4183 3.58172 40 8 40H40C44.4183 40 48 36.4183 48 32V18.25C48 13.8317 44.4183 10.25 40 10.25H35.1224C35.073 10.184 35.0187 10.1197 34.9592 10.0574L31.6819 6.61992C31.3045 6.22403 30.7814 6 30.2344 6H18.2676Z"/>
</mask>
<path d="M16.8721 6.56725L18.9653 8.71637L18.9653 8.71637L16.8721 6.56725ZM13.3427 10.0048L11.2496 7.85563L11.2496 7.85564L13.3427 10.0048ZM13.1265 10.25V13.25H14.6252L15.5252 12.0517L13.1265 10.25ZM35.1224 10.25L32.7214 12.0487L33.6214 13.25H35.1224V10.25ZM34.9592 10.0574L37.1306 7.98731L37.1306 7.98729L34.9592 10.0574ZM31.6819 6.61992L29.5106 8.69004L29.5106 8.69004L31.6819 6.61992ZM18.9653 8.71637C18.7785 8.89823 18.5282 9 18.2676 9V3C16.9643 3 15.7126 3.50884 14.779 4.41814L18.9653 8.71637ZM15.4359 12.1539L18.9653 8.71637L14.779 4.41813L11.2496 7.85563L15.4359 12.1539ZM15.5252 12.0517C15.4951 12.0919 15.4646 12.1259 15.4359 12.1539L11.2496 7.85564C11.0599 8.04038 10.8855 8.23833 10.7278 8.44827L15.5252 12.0517ZM8 13.25H13.1265V7.25H8V13.25ZM3 18.25C3 15.4886 5.23858 13.25 8 13.25V7.25C1.92487 7.25 -3 12.1749 -3 18.25H3ZM3 32V18.25H-3V32H3ZM8 37C5.23858 37 3 34.7614 3 32H-3C-3 38.0751 1.92487 43 8 43V37ZM40 37H8V43H40V37ZM45 32C45 34.7614 42.7614 37 40 37V43C46.0751 43 51 38.0751 51 32H45ZM45 18.25V32H51V18.25H45ZM40 13.25C42.7614 13.25 45 15.4886 45 18.25H51C51 12.1749 46.0751 7.25 40 7.25V13.25ZM35.1224 13.25H40V7.25H35.1224V13.25ZM32.7879 12.1275C32.7663 12.1049 32.7439 12.0787 32.7214 12.0487L37.5234 8.45131C37.4021 8.28942 37.271 8.13457 37.1306 7.98731L32.7879 12.1275ZM29.5106 8.69004L32.7879 12.1275L37.1306 7.98729L33.8532 4.54979L29.5106 8.69004ZM30.2344 9C29.9609 9 29.6993 8.88799 29.5106 8.69004L33.8532 4.5498C32.9096 3.56007 31.6018 3 30.2344 3V9ZM18.2676 9H30.2344V3H18.2676V9Z" fill="#192F5D" mask="url(#path-3-inside-1)"/>
<line x1="35.5" y1="17.5" x2="40.5" y2="17.5" stroke="#192F5D" stroke-width="3" stroke-linecap="round" stroke-linejoin="round"/>
</svg>
