<svg width="48" height="48" viewBox="0 0 48 48" fill="none" xmlns="http://www.w3.org/2000/svg">
<g clip-path="url(#clip0)">
<path d="M5.77641 22.4973C6.24869 21.8694 6.98867 21.5 7.77436 21.5H40.2884C41.1295 21.5 41.9143 21.923 42.3767 22.6256L43.6197 21.8076L42.3767 22.6256L45.6673 27.6256C46.7613 29.288 45.569 31.5 43.579 31.5H4.01368C1.95199 31.5 0.776467 29.1449 2.01573 27.4973L5.77641 22.4973Z" stroke="#192F5D" stroke-width="3"/>
<line x1="17.5" y1="15.5233" x2="17.5" y2="20.5233" stroke="#192F5D" stroke-width="3" stroke-linecap="round" stroke-linejoin="round"/>
<line x1="32.5" y1="15.5233" x2="32.5" y2="20.5233" stroke="#192F5D" stroke-width="3" stroke-linecap="round" stroke-linejoin="round"/>
<mask id="path-5-inside-1" fill="white">
<path d="M20.987 7.00259C21.5393 7.00116 21.9882 7.44771 21.9896 8L21.998 11.2384C22.0044 13.7201 19.9978 15.7371 17.5161 15.7436C15.0345 15.75 13.0174 13.7434 13.011 11.2617L13.0026 8.0233C13.0012 7.47102 13.4477 7.02215 14 7.02071L20.987 7.00259Z"/>
</mask>
<path d="M20.987 7.00259C21.5393 7.00116 21.9882 7.44771 21.9896 8L21.998 11.2384C22.0044 13.7201 19.9978 15.7371 17.5161 15.7436C15.0345 15.75 13.0174 13.7434 13.011 11.2617L13.0026 8.0233C13.0012 7.47102 13.4477 7.02215 14 7.02071L20.987 7.00259Z" stroke="#FF367E" stroke-width="4" mask="url(#path-5-inside-1)"/>
<mask id="path-6-inside-2" fill="white">
<path d="M35.987 7.00259C36.5393 7.00116 36.9882 7.44771 36.9896 8L36.998 11.2384C37.0044 13.7201 34.9978 15.7371 32.5161 15.7436C30.0345 15.75 28.0174 13.7434 28.011 11.2617L28.0026 8.0233C28.0012 7.47102 28.4477 7.02215 29 7.02071L35.987 7.00259Z"/>
</mask>
<path d="M35.987 7.00259C36.5393 7.00116 36.9882 7.44771 36.9896 8L36.998 11.2384C37.0044 13.7201 34.9978 15.7371 32.5161 15.7436C30.0345 15.75 28.0174 13.7434 28.011 11.2617L28.0026 8.0233C28.0012 7.47102 28.4477 7.02215 29 7.02071L35.987 7.00259Z" stroke="#FF367E" stroke-width="4" mask="url(#path-6-inside-2)"/>
<mask id="path-7-inside-3" fill="white">
<path d="M7.25882 31.0006C7.81111 30.9992 8.25998 31.4457 8.26141 31.998L8.29592 45.3025C8.29968 46.7547 7.12551 47.935 5.67333 47.9387C4.22114 47.9425 3.04086 46.7683 3.0371 45.3161L3.0026 32.0116C3.00116 31.4594 3.44772 31.0105 4 31.009L7.25882 31.0006Z"/>
</mask>
<path d="M7.25882 31.0006C7.81111 30.9992 8.25998 31.4457 8.26141 31.998L8.29592 45.3025C8.29968 46.7547 7.12551 47.935 5.67333 47.9387C4.22114 47.9425 3.04086 46.7683 3.0371 45.3161L3.0026 32.0116C3.00116 31.4594 3.44772 31.0105 4 31.009L7.25882 31.0006Z" stroke="#192F5D" stroke-width="4" mask="url(#path-7-inside-3)"/>
<mask id="path-8-inside-4" fill="white">
<path d="M43.2588 31.0026C43.8111 31.0012 44.26 31.4477 44.2614 32L44.2959 45.3045C44.2997 46.7567 43.1255 47.937 41.6733 47.9407C40.2211 47.9445 39.0409 46.7703 39.0371 45.3181L39.0026 32.0136C39.0012 31.4614 39.4477 31.0125 40 31.011L43.2588 31.0026Z"/>
</mask>
<path d="M43.2588 31.0026C43.8111 31.0012 44.26 31.4477 44.2614 32L44.2959 45.3045C44.2997 46.7567 43.1255 47.937 41.6733 47.9407C40.2211 47.9445 39.0409 46.7703 39.0371 45.3181L39.0026 32.0136C39.0012 31.4614 39.4477 31.0125 40 31.011L43.2588 31.0026Z" stroke="#192F5D" stroke-width="4" mask="url(#path-8-inside-4)"/>
</g>
<defs>
<clipPath id="clip0">
<rect width="48" height="48" fill="white"/>
</clipPath>
</defs>
</svg>
