<svg width="48" height="48" viewBox="0 0 48 48" fill="none" xmlns="http://www.w3.org/2000/svg">
<g clip-path="url(#clip0)">
<rect width="48" height="48" fill="white"/>
<mask id="path-2-inside-1" fill="white">
<path d="M26 1C28.2091 1 30 2.79086 30 5L30 43C30 45.2091 28.2091 47 26 47L10 47C8.89543 47 8 46.1046 8 45L8 3C8 1.89543 8.89543 1 10 1L26 1Z"/>
</mask>
<path d="M26 1C28.2091 1 30 2.79086 30 5L30 43C30 45.2091 28.2091 47 26 47L10 47C8.89543 47 8 46.1046 8 45L8 3C8 1.89543 8.89543 1 10 1L26 1Z" stroke="#192F5D" stroke-width="6" mask="url(#path-2-inside-1)"/>
<line x1="22.5" y1="26.5" x2="22.5" y2="18.5" stroke="#FF367E" stroke-width="3" stroke-linecap="round" stroke-linejoin="round"/>
<mask id="path-4-inside-2" fill="white">
<path d="M11 1L11 47H4C2.89543 47 2 46.1046 2 45L2 3C2 1.89543 2.89543 1 4 1L11 1Z"/>
</mask>
<path d="M11 1L11 47H4C2.89543 47 2 46.1046 2 45L2 3C2 1.89543 2.89543 1 4 1L11 1Z" stroke="#192F5D" stroke-width="6" mask="url(#path-4-inside-2)"/>
</g>
<defs>
<clipPath id="clip0">
<rect width="48" height="48" fill="white"/>
</clipPath>
</defs>
</svg>
